<svg width="400" height="500" viewBox="0 0 400 500" fill="none" xmlns="http://www.w3.org/2000/svg">
<g clip-path="url(#clip0_891_1231)">
<rect width="400" height="500" fill="white"/>
<rect width="640" height="832" fill="url(#paint0_linear_891_1231)"/>
<path d="M166.907 280.929C191.646 282.835 205.164 282.524 228.46 280.929L217.576 326.055C203.358 327.729 195.387 327.808 181.169 326.055L166.907 280.929Z" fill="#AB584B"/>
<ellipse cx="197.683" cy="269.05" rx="35.6177" ry="5.80143" fill="#EF8743"/>
<ellipse cx="198.029" cy="268.497" rx="29.739" ry="3.03884" fill="#48373B"/>
<path d="M162.411 269.879C188.693 276.233 211.953 276.897 233.301 268.774L231.057 279.458C223.766 285.334 178.893 289.073 164.309 279.458L162.411 269.879Z" fill="#E55C40"/>
<path d="M195.35 203.908L177.281 190.878L177.904 190.047L197.219 203.63L211.238 188.106H211.861L199.711 203.908V267.668H195.35V203.908Z" fill="#039E60"/>
<path d="M177.281 216.284C177.281 216.284 182.759 214.759 186.272 215.179C190.978 215.743 196.611 220.33 196.611 220.33L195.877 221.267C195.877 221.267 190.915 216.872 186.618 216.284C183.248 215.824 177.973 217.389 177.973 217.389L177.281 216.284Z" fill="#039E60"/>
<path d="M215.724 240.221C215.724 240.221 210.247 238.696 206.733 239.116C202.028 239.68 196.395 244.267 196.395 244.267L197.128 245.204C197.128 245.204 202.09 240.809 206.388 240.221C209.758 239.761 215.033 241.326 215.033 241.326L215.724 240.221Z" fill="#039E60"/>
<path d="M180.048 227.887C180.048 227.887 183.186 222.673 186.699 223.093C191.405 223.657 197.038 228.244 197.038 228.244L196.304 229.181C196.304 229.181 190.997 224.883 186.699 224.296C183.329 223.835 181.431 228.244 181.431 228.244L180.048 227.887Z" fill="#039E60"/>
<path d="M205.846 192.884C205.846 192.884 204.679 188.479 210.242 184.174C219.032 177.372 235.03 178.934 235.03 178.934L225.002 181.696L206.384 193.601L205.846 192.884Z" fill="#30A174"/>
<path d="M206.384 193.602C206.384 193.602 215.23 197.808 217.74 192.195C219.469 188.327 235.376 178.934 235.376 178.934C235.376 178.934 225.002 178.658 217.74 184.183C213.091 187.72 206.384 193.602 206.384 193.602Z" fill="#048551"/>
<path d="M183.736 191.725C183.736 191.725 183.852 187.108 177.504 183.62C167.472 178.109 152.407 182.127 152.407 182.127L162.708 183.379L183.382 192.53L183.736 191.725Z" fill="#30A174"/>
<path d="M183.382 192.531C183.382 192.531 175.817 198.121 172.112 192.848C169.56 189.215 152.074 182.181 152.074 182.181C152.074 182.181 162.012 180.317 170.278 184.775C175.569 187.629 183.382 192.531 183.382 192.531Z" fill="#048551"/>
<path d="M211.031 238.787C211.031 238.787 215.67 234.236 222.927 236.396C234.395 239.809 244.962 252.623 244.962 252.623L240.679 251.587L210.451 239.483L211.031 238.787Z" fill="#30A174"/>
<path d="M210.451 239.483C210.451 239.483 209.399 246.692 216.927 247.067C220.48 247.245 244.644 252.539 244.644 252.539C244.644 252.539 233.652 246.339 225.98 243.621C220.081 241.531 210.451 239.483 210.451 239.483Z" fill="#048551"/>
<path d="M186.439 224.278C186.439 224.278 183.311 222.971 180.442 225.12C175.909 228.515 173.842 236.011 173.842 236.011L175.587 234.851L186.858 224.499L186.439 224.278Z" fill="#30A174"/>
<path d="M186.858 224.498C186.858 224.498 188.916 227.585 185.533 228.972C183.936 229.626 173.97 235.922 173.97 235.922C173.97 235.922 177.676 231.345 180.614 228.877C182.873 226.98 186.858 224.498 186.858 224.498Z" fill="#048551"/>
<path d="M179.523 214.984C179.523 214.984 176.395 213.677 173.526 215.826C168.993 219.221 166.926 226.717 166.926 226.717L168.671 225.558L179.942 215.205L179.523 214.984Z" fill="#30A174"/>
<path d="M179.942 215.204C179.942 215.204 182 218.291 178.617 219.678C177.02 220.332 167.054 226.628 167.054 226.628C167.054 226.628 170.76 222.051 173.698 219.583C175.957 217.686 179.942 215.204 179.942 215.204Z" fill="#048551"/>
</g>
<defs>
<linearGradient id="paint0_linear_891_1231" x1="436" y1="1.60411e-06" x2="451" y2="832" gradientUnits="userSpaceOnUse">
<stop stop-color="white"/>
<stop offset="1" stop-color="#D8E7FE"/>
</linearGradient>
<clipPath id="clip0_891_1231">
<rect width="400" height="500" fill="white"/>
</clipPath>
</defs>
</svg>
