<svg width="248" height="32" viewBox="0 0 248 32" fill="none" xmlns="http://www.w3.org/2000/svg">
<path d="M96.5349 12.3735L97.8789 12.3775L100.212 19.0085L100.008 18.9239L101.737 14.489L102.272 16.0626L99.9652 21.4077L96.5349 12.3735ZM100.699 12.3859L101.863 12.3894L104.388 18.9249L104.148 18.8762L106.411 12.403L107.647 12.4066L104.213 21.4084L100.699 12.3859ZM109.084 21.039L109.11 11.751L110.202 11.7543L110.187 17.2263L110.163 17.0222C110.332 16.6947 110.589 16.4234 110.934 16.2085C111.286 15.9935 111.699 15.8868 112.171 15.8882C112.643 15.8896 113.026 16.0307 113.321 16.3116C113.625 16.5845 113.78 16.941 113.786 17.381L113.776 21.053L112.648 21.0496L112.657 17.7736C112.65 17.5016 112.571 17.2814 112.419 17.1129C112.276 16.9365 112.048 16.8478 111.736 16.8469C111.448 16.846 111.188 16.9292 110.955 17.0965C110.723 17.2559 110.538 17.4753 110.401 17.7549C110.273 18.0345 110.208 18.3543 110.207 18.7143L110.2 21.0423L109.084 21.039ZM117.78 21.1849C117.316 21.1836 116.893 21.0823 116.509 20.8812C116.134 20.68 115.835 20.3871 115.612 20.0025C115.397 19.6098 115.29 19.1335 115.292 18.5735C115.293 18.0215 115.411 17.5459 115.644 17.1465C115.877 16.7392 116.186 16.4282 116.571 16.2133C116.963 15.9985 117.392 15.8918 117.856 15.8931C118.32 15.8945 118.711 16.0037 119.031 16.2207C119.35 16.4296 119.593 16.6783 119.76 16.9668L119.688 17.1586L119.799 16.103L120.831 16.106L120.817 21.074L119.701 21.0707L119.704 19.7747L119.824 20.063C119.791 20.1429 119.719 20.2467 119.607 20.3744C119.502 20.4941 119.358 20.6177 119.174 20.7451C118.997 20.8726 118.793 20.98 118.561 21.0673C118.329 21.1466 118.068 21.1858 117.78 21.1849ZM118.083 20.2618C118.363 20.2627 118.615 20.2114 118.84 20.1081C119.064 20.0048 119.248 19.8613 119.393 19.6778C119.545 19.4862 119.65 19.2585 119.707 18.9947L119.709 18.0227C119.646 17.7825 119.535 17.5742 119.375 17.3977C119.216 17.2132 119.024 17.0726 118.8 16.976C118.577 16.8713 118.329 16.8186 118.057 16.8178C117.761 16.8169 117.489 16.8881 117.24 17.0313C116.992 17.1746 116.791 17.374 116.639 17.6295C116.494 17.8851 116.421 18.1849 116.42 18.5289C116.419 18.8489 116.494 19.1411 116.646 19.4056C116.797 19.67 117 19.8786 117.256 20.0314C117.511 20.1841 117.787 20.261 118.083 20.2618ZM123.248 13.9292L124.364 13.9326L124.358 16.1406L125.726 16.1447L125.724 17.0207L124.356 17.0166L124.344 21.0846L123.228 21.0812L123.24 17.0132L122.328 17.0105L122.33 16.1345L123.242 16.1372L123.248 13.9292ZM132.873 21.23C132.417 21.2287 132.001 21.1194 131.626 20.9023C131.259 20.6772 130.967 20.3643 130.753 19.9637C130.538 19.555 130.431 19.0867 130.433 18.5587C130.434 18.0067 130.548 17.5351 130.773 17.1437C131.006 16.7524 131.319 16.4534 131.711 16.2465C132.104 16.0397 132.544 15.937 133.032 15.9385C133.424 15.9396 133.796 16.0248 134.147 16.1938C134.507 16.3629 134.786 16.5957 134.985 16.8923L134.936 17.2882L134.952 11.8282L136.056 11.8315L136.029 21.1195L134.913 21.1161L134.917 19.8801L135.036 20.1925C134.803 20.4958 134.502 20.7469 134.134 20.9458C133.765 21.1367 133.345 21.2314 132.873 21.23ZM133.224 20.2831C133.52 20.284 133.784 20.2327 134.016 20.1294C134.248 20.0181 134.441 19.8667 134.593 19.6752C134.746 19.4836 134.855 19.2559 134.919 18.9921L134.922 18.0561C134.859 17.8159 134.743 17.6076 134.576 17.4311C134.416 17.2466 134.221 17.102 133.989 16.9973C133.765 16.8847 133.514 16.8279 133.234 16.8271C132.93 16.8262 132.649 16.9013 132.393 17.0526C132.144 17.1958 131.944 17.3952 131.791 17.6508C131.638 17.9063 131.562 18.2021 131.561 18.5381C131.56 18.8661 131.635 19.1623 131.786 19.4268C131.937 19.6832 132.141 19.8918 132.396 20.0526C132.652 20.2054 132.928 20.2822 133.224 20.2831ZM137.985 16.1573L139.101 16.1606L139.087 21.1286L137.971 21.1252L137.985 16.1573ZM137.906 14.357C137.906 14.181 137.975 14.0332 138.111 13.9136C138.255 13.7941 138.412 13.7345 138.58 13.735C138.748 13.7355 138.895 13.796 139.023 13.9164C139.159 14.0368 139.226 14.185 139.226 14.361C139.225 14.545 139.157 14.6968 139.021 14.8164C138.892 14.928 138.744 14.9835 138.576 14.983C138.408 14.9825 138.252 14.9221 138.109 14.8016C137.973 14.6812 137.905 14.533 137.906 14.357ZM143.033 21.2604C142.577 21.259 142.161 21.1498 141.786 20.9326C141.419 20.7075 141.128 20.3947 140.913 19.994C140.698 19.5854 140.591 19.1171 140.593 18.5891C140.594 18.0371 140.708 17.5654 140.933 17.1741C141.166 16.7828 141.479 16.4837 141.871 16.2769C142.264 16.07 142.704 15.9674 143.192 15.9688C143.584 15.97 143.956 16.0551 144.307 16.2242C144.667 16.3932 144.946 16.6261 145.145 16.9227L145.096 17.3185L145.112 11.8585L146.216 11.8618L146.189 21.1498L145.073 21.1465L145.077 19.9105L145.196 20.2228C144.963 20.5261 144.663 20.7772 144.294 20.9761C143.925 21.167 143.505 21.2618 143.033 21.2604ZM143.384 20.3134C143.68 20.3143 143.944 20.2631 144.176 20.1598C144.409 20.0485 144.601 19.897 144.754 19.7055C144.906 19.514 145.015 19.2863 145.079 19.0225L145.082 18.0865C145.019 17.8463 144.903 17.6379 144.736 17.4614C144.576 17.277 144.381 17.1324 144.149 17.0277C143.925 16.915 143.674 16.8583 143.394 16.8574C143.09 16.8565 142.809 16.9317 142.553 17.0829C142.305 17.2262 142.104 17.4256 141.951 17.6811C141.799 17.9367 141.722 18.2324 141.721 18.5684C141.72 18.8964 141.795 19.1927 141.946 19.4571C142.098 19.7136 142.301 19.9222 142.556 20.0829C142.812 20.2357 143.088 20.3125 143.384 20.3134ZM152.228 12.4918L153.392 12.4953L153.368 21.1712L152.204 21.1678L152.228 12.4918ZM161.396 21.3152C160.94 21.3139 160.525 21.2046 160.149 20.9875C159.782 20.7624 159.491 20.4495 159.276 20.0489C159.061 19.6402 158.954 19.1719 158.956 18.6439C158.957 18.0919 159.071 17.6203 159.296 17.2289C159.529 16.8376 159.842 16.5386 160.234 16.3317C160.627 16.1249 161.067 16.0222 161.555 16.0237C161.947 16.0248 162.319 16.1099 162.671 16.279C163.03 16.4481 163.31 16.6809 163.509 16.9775L163.46 17.3734L163.475 11.9134L164.579 11.9167L164.553 21.2046L163.437 21.2013L163.44 19.9653L163.559 20.2777C163.326 20.581 163.026 20.8321 162.657 21.031C162.289 21.2219 161.868 21.3166 161.396 21.3152ZM161.747 20.3683C162.043 20.3691 162.307 20.3179 162.539 20.2146C162.772 20.1033 162.964 19.9519 163.117 19.7603C163.269 19.5688 163.378 19.3411 163.443 19.0773L163.445 18.1413C163.382 17.9011 163.267 17.6928 163.099 17.5163C162.94 17.3318 162.744 17.1872 162.512 17.0825C162.289 16.9699 162.037 16.9131 161.757 16.9123C161.453 16.9114 161.173 16.9865 160.916 17.1378C160.668 17.281 160.467 17.4804 160.314 17.736C160.162 17.9915 160.085 18.2873 160.084 18.6233C160.083 18.9513 160.158 19.2475 160.309 19.512C160.461 19.7684 160.664 19.977 160.92 20.1378C161.175 20.2905 161.451 20.3674 161.747 20.3683ZM166.069 18.6772C166.071 18.1812 166.188 17.7335 166.421 17.3342C166.662 16.9349 166.991 16.6199 167.408 16.3891C167.824 16.1584 168.297 16.0438 168.825 16.0454C169.369 16.047 169.844 16.1644 170.252 16.3976C170.659 16.6309 170.974 16.9478 171.197 17.3485C171.42 17.7491 171.531 18.1975 171.529 18.6935C171.528 19.1895 171.414 19.6411 171.189 20.0485C170.964 20.4478 170.643 20.7628 170.227 20.9936C169.818 21.2244 169.342 21.3389 168.798 21.3373C168.27 21.3357 167.798 21.2263 167.382 21.0091C166.975 20.7839 166.652 20.4749 166.413 20.0822C166.182 19.6815 166.068 19.2132 166.069 18.6772ZM167.185 18.6925C167.184 19.0125 167.255 19.3047 167.399 19.5691C167.542 19.8256 167.733 20.0301 167.973 20.1829C168.22 20.3356 168.492 20.4124 168.788 20.4133C169.1 20.4142 169.376 20.339 169.617 20.1878C169.865 20.0365 170.058 19.8331 170.195 19.5775C170.331 19.3139 170.4 19.0221 170.401 18.7021C170.402 18.3821 170.335 18.0939 170.2 17.8375C170.064 17.5731 169.873 17.3645 169.625 17.2118C169.386 17.0511 169.11 16.9702 168.798 16.9693C168.494 16.9684 168.218 17.0476 167.969 17.2068C167.729 17.3661 167.536 17.5775 167.392 17.8411C167.255 18.0967 167.186 18.3805 167.185 18.6925ZM177.33 14.0908L178.446 14.0941L178.44 16.3021L179.808 16.3062L179.805 17.1822L178.437 17.1781L178.426 21.2461L177.31 21.2427L177.321 17.1748L176.409 17.172L176.412 16.296L177.324 16.2988L177.33 14.0908ZM181.142 21.2542L181.169 11.9662L182.261 11.9695L182.245 17.4415L182.222 17.2374C182.391 16.9099 182.647 16.6387 182.992 16.4237C183.345 16.2087 183.757 16.102 184.229 16.1034C184.701 16.1048 185.085 16.2459 185.38 16.5268C185.683 16.7997 185.838 17.1562 185.845 17.5962L185.834 21.2682L184.706 21.2648L184.716 17.9888C184.708 17.7168 184.629 17.4966 184.477 17.3281C184.334 17.1517 184.106 17.063 183.794 17.0621C183.506 17.0612 183.246 17.1445 183.014 17.3118C182.781 17.4711 182.596 17.6905 182.46 17.9701C182.331 18.2497 182.266 18.5695 182.265 18.9295L182.258 21.2575L181.142 21.2542ZM187.789 16.306L188.905 16.3094L188.891 21.2773L187.775 21.274L187.789 16.306ZM187.71 14.5058C187.711 14.3298 187.779 14.182 187.916 14.0624C188.06 13.9428 188.216 13.8833 188.384 13.8838C188.552 13.8843 188.7 13.9447 188.828 14.0651C188.963 14.1855 189.031 14.3337 189.03 14.5097C189.03 14.6937 188.961 14.8455 188.825 14.9651C188.697 15.0767 188.549 15.1323 188.381 15.1318C188.213 15.1313 188.057 15.0708 187.913 14.9504C187.777 14.83 187.71 14.6818 187.71 14.5058ZM192.214 21.3833C191.862 21.3822 191.518 21.3212 191.182 21.2002C190.855 21.0712 190.583 20.8824 190.368 20.6337L190.838 19.9871C191.045 20.1878 191.257 20.3404 191.472 20.445C191.696 20.5417 191.916 20.5904 192.132 20.591C192.292 20.5915 192.44 20.5719 192.576 20.5323C192.712 20.4927 192.82 20.4291 192.901 20.3413C192.989 20.2456 193.033 20.1177 193.034 19.9577C193.034 19.7817 192.975 19.6415 192.855 19.5372C192.743 19.4328 192.595 19.3484 192.412 19.2838C192.236 19.2193 192.048 19.1588 191.848 19.1022C191.441 18.9649 191.129 18.776 190.914 18.5354C190.698 18.2947 190.591 18.0024 190.592 17.6584C190.593 17.3944 190.658 17.1506 190.786 16.927C190.923 16.6954 191.12 16.508 191.376 16.3647C191.64 16.2215 191.965 16.1505 192.349 16.1516C192.693 16.1527 193 16.1976 193.272 16.2864C193.544 16.3672 193.8 16.504 194.039 16.6967L193.593 17.3914C193.449 17.2389 193.278 17.1264 193.078 17.0538C192.878 16.9812 192.698 16.9407 192.538 16.9322C192.402 16.9238 192.27 16.9434 192.142 16.991C192.022 17.0387 191.922 17.1064 191.842 17.1941C191.761 17.2819 191.721 17.3858 191.721 17.5058C191.72 17.6738 191.776 17.8099 191.888 17.9143C191.999 18.0186 192.143 18.103 192.319 18.1676C192.503 18.2241 192.682 18.2846 192.858 18.3492C193.106 18.4219 193.326 18.5186 193.517 18.6391C193.709 18.7597 193.861 18.9082 193.972 19.0845C194.092 19.2609 194.151 19.481 194.15 19.745C194.149 20.041 194.077 20.3168 193.932 20.5724C193.795 20.82 193.583 21.0193 193.294 21.1705C193.014 21.3136 192.654 21.3846 192.214 21.3833ZM200.516 16.344L200.608 17.4603L200.561 17.3642C200.746 16.9887 201.007 16.6935 201.343 16.4785C201.688 16.2635 202.08 16.1567 202.52 16.158C202.8 16.1589 203.048 16.2036 203.264 16.2922C203.48 16.3809 203.655 16.5094 203.791 16.6778C203.934 16.8382 204.026 17.0385 204.065 17.2786L204.005 17.3145C204.198 16.955 204.463 16.6758 204.799 16.4768C205.144 16.2699 205.504 16.1669 205.88 16.168C206.368 16.1695 206.752 16.3107 207.031 16.5915C207.318 16.8643 207.465 17.2208 207.472 17.6608L207.461 21.3328L206.345 21.3295L206.355 18.0535C206.348 17.7975 206.284 17.5853 206.165 17.4169C206.053 17.2406 205.853 17.144 205.565 17.1271C205.277 17.1263 205.017 17.2135 204.785 17.3888C204.56 17.5641 204.384 17.7916 204.255 18.0712C204.126 18.3428 204.057 18.6386 204.048 18.9586L204.041 21.3226L202.925 21.3192L202.935 18.0433C202.928 17.7872 202.86 17.575 202.733 17.4067C202.613 17.2303 202.409 17.1337 202.121 17.1168C201.825 17.1159 201.565 17.2032 201.341 17.3785C201.116 17.5538 200.94 17.7813 200.811 18.0609C200.69 18.3406 200.629 18.6404 200.628 18.9604L200.621 21.3124L199.505 21.309L199.52 16.3411L200.516 16.344ZM208.983 18.8053C208.984 18.3093 209.102 17.8617 209.335 17.4624C209.576 17.0631 209.905 16.7481 210.322 16.5173C210.738 16.2866 211.21 16.172 211.738 16.1735C212.282 16.1752 212.758 16.2926 213.165 16.5258C213.573 16.759 213.888 17.076 214.111 17.4766C214.334 17.8773 214.444 18.3256 214.443 18.8216C214.442 19.3176 214.328 19.7693 214.103 20.1766C213.878 20.576 213.557 20.891 213.14 21.1218C212.732 21.3525 212.255 21.4671 211.711 21.4655C211.183 21.4639 210.712 21.3545 210.296 21.1373C209.889 20.912 209.566 20.6031 209.327 20.2104C209.096 19.8097 208.981 19.3413 208.983 18.8053ZM210.099 18.8207C210.098 19.1407 210.169 19.4329 210.312 19.6973C210.456 19.9537 210.647 20.1583 210.887 20.311C211.134 20.4638 211.406 20.5406 211.702 20.5415C212.014 20.5424 212.29 20.4672 212.531 20.3159C212.779 20.1647 212.972 19.9612 213.108 19.7057C213.245 19.4421 213.314 19.1503 213.315 18.8303C213.316 18.5103 213.249 18.2221 213.113 17.9657C212.978 17.7013 212.787 17.4927 212.539 17.3399C212.3 17.1792 212.024 17.0984 211.712 17.0975C211.408 17.0966 211.132 17.1757 210.883 17.335C210.643 17.4943 210.45 17.7057 210.305 17.9693C210.169 18.2249 210.1 18.5087 210.099 18.8207ZM216.957 16.3931L217.05 17.6054L217.002 17.4133C217.163 17.0458 217.424 16.7545 217.785 16.5396C218.145 16.3167 218.561 16.2059 219.033 16.2073C219.505 16.2087 219.889 16.3499 220.184 16.6308C220.488 16.9037 220.643 17.2601 220.649 17.7002L220.639 21.3722L219.511 21.3688L219.52 18.0928C219.513 17.8208 219.434 17.6005 219.282 17.4321C219.139 17.2557 218.911 17.167 218.599 17.166C218.311 17.1652 218.051 17.2444 217.818 17.4037C217.586 17.563 217.401 17.7825 217.264 18.0621C217.135 18.3417 217.07 18.6655 217.069 19.0335L217.063 21.3615L215.947 21.3581L215.961 16.3902L216.957 16.3931ZM223.08 14.2274L224.196 14.2307L224.19 16.4387L225.558 16.4428L225.555 17.3188L224.187 17.3147L224.176 21.3827L223.06 21.3794L223.071 17.3114L222.159 17.3087L222.162 16.4327L223.074 16.4354L223.08 14.2274ZM226.892 21.3908L226.919 12.1029L228.011 12.1061L227.995 17.5781L227.972 17.374C228.14 17.0465 228.397 16.7753 228.742 16.5603C229.094 16.3454 229.507 16.2386 229.979 16.24C230.451 16.2414 230.834 16.3826 231.13 16.6635C231.433 16.9364 231.588 17.2928 231.595 17.7329L231.584 21.4048L230.456 21.4015L230.465 18.1255C230.458 17.8535 230.379 17.6332 230.227 17.4648C230.084 17.2883 229.856 17.1997 229.544 17.1987C229.256 17.1979 228.996 17.2811 228.763 17.4484C228.531 17.6077 228.346 17.8272 228.209 18.1067C228.081 18.3864 228.016 18.7062 228.015 19.0662L228.008 21.3942L226.892 21.3908ZM234.563 19.1937L234.565 18.4377C234.566 18.0457 234.619 17.7339 234.724 17.5022C234.829 17.2625 234.965 17.0629 235.134 16.9034C235.302 16.7439 235.475 16.5884 235.651 16.437C235.9 16.2297 236.112 16.0143 236.289 15.7909C236.474 15.5594 236.566 15.2597 236.567 14.8917C236.568 14.6277 236.505 14.3955 236.377 14.1951C236.258 13.9948 236.098 13.8383 235.899 13.7257C235.699 13.6131 235.483 13.5565 235.251 13.5558C234.987 13.555 234.751 13.6143 234.543 13.7336C234.342 13.845 234.174 13.9965 234.037 14.1881C233.901 14.3717 233.792 14.5754 233.712 14.7992L232.789 14.3644C232.845 14.1886 232.938 13.9969 233.067 13.7892C233.203 13.5736 233.376 13.3702 233.584 13.1788C233.793 12.9874 234.045 12.8322 234.342 12.713C234.638 12.5859 234.978 12.5229 235.362 12.5241C235.818 12.5254 236.226 12.6147 236.585 12.7917C236.945 12.9688 237.228 13.2257 237.435 13.5623C237.65 13.8989 237.757 14.3112 237.756 14.7992C237.755 15.1832 237.698 15.5031 237.585 15.7587C237.472 16.0144 237.328 16.238 237.151 16.4294C236.983 16.6209 236.798 16.8084 236.597 16.9918C236.429 17.1353 236.273 17.2788 236.128 17.4224C235.992 17.558 235.883 17.7257 235.803 17.9254C235.722 18.1172 235.682 18.3731 235.681 18.6931L235.679 19.1971L234.563 19.1937ZM235.133 21.3674C234.925 21.3668 234.753 21.3063 234.618 21.1859C234.482 21.0655 234.414 20.9093 234.415 20.7173C234.415 20.5413 234.484 20.3935 234.62 20.2739C234.756 20.1463 234.929 20.0828 235.137 20.0834C235.337 20.084 235.5 20.1485 235.628 20.2769C235.764 20.3973 235.831 20.5455 235.831 20.7215C235.83 20.9135 235.762 21.0693 235.626 21.1889C235.497 21.3085 235.333 21.368 235.133 21.3674Z" fill="#1C1B20"/>
<path d="M11.7 22.5L8.6 8.74L10.98 8.46L13.5 21.36L15.7 12.16C15.7667 11.8667 15.9733 11.72 16.32 11.72C16.68 11.72 17.08 11.7533 17.52 11.82C17.96 11.8867 18.24 11.9467 18.36 12L20.66 21.28L23.14 8.46L25.52 8.74L22.3 22.86C22.1533 22.9267 21.7867 22.9867 21.2 23.04C20.6133 23.1067 20.0867 23.14 19.62 23.14C19.1667 23.14 18.8933 22.9267 18.8 22.5L17.06 14.56L15.22 22.86C15.0733 22.9267 14.7 22.9867 14.1 23.04C13.5133 23.1067 12.9867 23.14 12.52 23.14C12.0533 23.14 11.78 22.9267 11.7 22.5ZM28.285 23V8.7C29.8983 8.55333 31.7183 8.48 33.745 8.48C35.465 8.48 36.8717 9.07333 37.965 10.26C39.0717 11.4467 39.625 13.22 39.625 15.58C39.625 17.9267 39.0583 19.7733 37.925 21.12C36.7917 22.4533 35.0583 23.12 32.725 23.12C30.3917 23.12 28.9117 23.08 28.285 23ZM30.565 21.24C31.365 21.2933 32.245 21.32 33.205 21.32C34.7117 21.32 35.765 20.8333 36.365 19.86C36.9783 18.8733 37.285 17.4333 37.285 15.54C37.285 13.6467 36.9383 12.3 36.245 11.5C35.565 10.6867 34.6117 10.28 33.385 10.28C32.8383 10.28 31.8983 10.32 30.565 10.4V21.24ZM42.992 23V8.6H45.272V23H42.992ZM49.5936 23V8.7C51.2069 8.55333 53.0269 8.48 55.0536 8.48C56.7736 8.48 58.1803 9.07333 59.2736 10.26C60.3803 11.4467 60.9336 13.22 60.9336 15.58C60.9336 17.9267 60.3669 19.7733 59.2336 21.12C58.1003 22.4533 56.3669 23.12 54.0336 23.12C51.7003 23.12 50.2203 23.08 49.5936 23ZM51.8736 21.24C52.6736 21.2933 53.5536 21.32 54.5136 21.32C56.0203 21.32 57.0736 20.8333 57.6736 19.86C58.2869 18.8733 58.5936 17.4333 58.5936 15.54C58.5936 13.6467 58.2469 12.3 57.5536 11.5C56.8736 10.6867 55.9203 10.28 54.6936 10.28C54.1469 10.28 53.2069 10.32 51.8736 10.4V21.24ZM65.9352 23V10.4H61.6752V8.6H72.6352L72.3552 10.4H68.2152V23H65.9352ZM74.5694 23L75.2294 8.74C76.136 8.56667 77.016 8.48 77.8694 8.48C78.136 8.48 78.3294 8.62667 78.4494 8.92L82.2694 19.36L86.0894 8.92C86.2094 8.62667 86.4027 8.48 86.6694 8.48C87.6294 8.48 88.5094 8.56667 89.3094 8.74L89.9694 23H87.7894L87.4494 10.74L83.7894 21C82.6694 21.1867 81.896 21.28 81.4694 21.28C81.0427 21.28 80.776 21.1333 80.6694 20.84L77.0894 10.74L76.7494 23H74.5694Z" fill="#1C1B20"/>
</svg>
