<svg width="93" height="34" viewBox="0 0 93 34" fill="none" xmlns="http://www.w3.org/2000/svg">
<path d="M7.7 23.5L4.6 9.74L6.98 9.46L9.5 22.36L11.7 13.16C11.7667 12.8667 11.9733 12.72 12.32 12.72C12.68 12.72 13.08 12.7533 13.52 12.82C13.96 12.8867 14.24 12.9467 14.36 13L16.66 22.28L19.14 9.46L21.52 9.74L18.3 23.86C18.1533 23.9267 17.7867 23.9867 17.2 24.04C16.6133 24.1067 16.0867 24.14 15.62 24.14C15.1667 24.14 14.8933 23.9267 14.8 23.5L13.06 15.56L11.22 23.86C11.0733 23.9267 10.7 23.9867 10.1 24.04C9.51333 24.1067 8.98667 24.14 8.52 24.14C8.05333 24.14 7.78 23.9267 7.7 23.5ZM24.285 24V9.7C25.8983 9.55333 27.7183 9.48 29.745 9.48C31.465 9.48 32.8717 10.0733 33.965 11.26C35.0717 12.4467 35.625 14.22 35.625 16.58C35.625 18.9267 35.0583 20.7733 33.925 22.12C32.7917 23.4533 31.0583 24.12 28.725 24.12C26.3917 24.12 24.9117 24.08 24.285 24ZM26.565 22.24C27.365 22.2933 28.245 22.32 29.205 22.32C30.7117 22.32 31.765 21.8333 32.365 20.86C32.9783 19.8733 33.285 18.4333 33.285 16.54C33.285 14.6467 32.9383 13.3 32.245 12.5C31.565 11.6867 30.6117 11.28 29.385 11.28C28.8383 11.28 27.8983 11.32 26.565 11.4V22.24ZM38.992 24V9.6H41.272V24H38.992ZM45.5936 24V9.7C47.2069 9.55333 49.0269 9.48 51.0536 9.48C52.7736 9.48 54.1803 10.0733 55.2736 11.26C56.3803 12.4467 56.9336 14.22 56.9336 16.58C56.9336 18.9267 56.3669 20.7733 55.2336 22.12C54.1003 23.4533 52.3669 24.12 50.0336 24.12C47.7003 24.12 46.2203 24.08 45.5936 24ZM47.8736 22.24C48.6736 22.2933 49.5536 22.32 50.5136 22.32C52.0203 22.32 53.0736 21.8333 53.6736 20.86C54.2869 19.8733 54.5936 18.4333 54.5936 16.54C54.5936 14.6467 54.2469 13.3 53.5536 12.5C52.8736 11.6867 51.9203 11.28 50.6936 11.28C50.1469 11.28 49.2069 11.32 47.8736 11.4V22.24ZM61.9352 24V11.4H57.6752V9.6H68.6352L68.3552 11.4H64.2152V24H61.9352ZM70.5694 24L71.2294 9.74C72.136 9.56667 73.016 9.48 73.8694 9.48C74.136 9.48 74.3294 9.62667 74.4494 9.92L78.2694 20.36L82.0894 9.92C82.2094 9.62667 82.4027 9.48 82.6694 9.48C83.6294 9.48 84.5094 9.56667 85.3094 9.74L85.9694 24H83.7894L83.4494 11.74L79.7894 22C78.6694 22.1867 77.896 22.28 77.4694 22.28C77.0427 22.28 76.776 22.1333 76.6694 21.84L73.0894 11.74L72.7494 24H70.5694Z" fill="#1C1B20"/>
</svg>
